<svg version="1.1" xmlns="http://www.w3.org/2000/svg" xmlns:xlink="http://www.w3.org/1999/xlink" width="484" height="365" viewBox="0,0,484,365"><defs><linearGradient x1="192" y1="107.3" x2="192" y2="117.3" gradientUnits="userSpaceOnUse" id="color-1"><stop offset="0" stop-color="#232323"/><stop offset="1" stop-color="#808080"/></linearGradient></defs><g transform="translate(1.5,2.69998)"><g data-paper-data="{&quot;isPaintingLayer&quot;:true}" fill-rule="nonzero" stroke="none" stroke-linecap="butt" stroke-linejoin="miter" stroke-miterlimit="10" stroke-dasharray="" stroke-dashoffset="0" style="mix-blend-mode: normal"><path d="M-1.5,360.30003v-362h33v362z" fill="#636363" stroke-width="0"/><path d="M30.5,25.30002v-27h452v27z" fill="#636363" stroke-width="0"/><path d="M456.5,361.30003v-364h26v364z" fill="#636363" stroke-width="0"/><path d="M21.5,362.30003v-20h444v20z" fill="#636363" stroke-width="0"/><path d="M75.5,92.30002v-38h40v38z" fill="#636363" stroke-width="0"/><path d="M77.5,143.30001v-3h3v3z" fill="#636363" stroke-width="0"/><path d="M70.5,224.30001v-23h27v23z" fill="#636363" stroke-width="0"/><path d="M104.5,153.30001v-28h21v28z" fill="#636363" stroke-width="0"/><path d="M142.5,77.30002v-20h291v20z" fill="#636363" stroke-width="0"/><path d="M345.5,314.30001v-200h21v200z" fill="#636363" stroke-width="0"/><path d="M89.5,284.30001c0,-19.88225 16.11775,-36 36,-36c19.88225,0 36,16.11775 36,36c0,19.88225 -16.11775,36 -36,36c-19.88225,0 -36,-16.11775 -36,-36z" fill="#636363" stroke-width="0"/><path d="M199,321.30001c0,-1.38071 1.11929,-2.5 2.5,-2.5c1.38071,0 2.5,1.11929 2.5,2.5c0,1.38071 -1.11929,2.5 -2.5,2.5c-1.38071,0 -2.5,-1.11929 -2.5,-2.5z" fill="#636363" stroke-width="0.5"/><path d="M244,288.30001c0,-1.38071 1.11929,-2.5 2.5,-2.5c1.38071,0 2.5,1.11929 2.5,2.5c0,1.38071 -1.11929,2.5 -2.5,2.5c-1.38071,0 -2.5,-1.11929 -2.5,-2.5z" fill="#636363" stroke-width="0.5"/><path d="M183,242.30001c0,-1.38071 1.11929,-2.5 2.5,-2.5c1.38071,0 2.5,1.11929 2.5,2.5c0,1.38071 -1.11929,2.5 -2.5,2.5c-1.38071,0 -2.5,-1.11929 -2.5,-2.5z" fill="#636363" stroke-width="0.5"/><path d="M186,277.30001c0,-1.38071 1.11929,-2.5 2.5,-2.5c1.38071,0 2.5,1.11929 2.5,2.5c0,1.38071 -1.11929,2.5 -2.5,2.5c-1.38071,0 -2.5,-1.11929 -2.5,-2.5z" fill="#636363" stroke-width="0.5"/><path d="M212,263.30001c0,-1.38071 1.11929,-2.5 2.5,-2.5c1.38071,0 2.5,1.11929 2.5,2.5c0,1.38071 -1.11929,2.5 -2.5,2.5c-1.38071,0 -2.5,-1.11929 -2.5,-2.5z" fill="#636363" stroke-width="0.5"/><path d="M83.62047,150.69803c-0.17376,0.2371 -0.41237,0.46788 -0.73372,0.68211c-2.08013,1.38675 -3.46688,-0.69338 -3.46688,-0.69338c-0.31102,-0.47021 -0.60421,-0.95324 -0.9065,-1.42972c-1.46891,-0.59718 -2.68257,-1.59378 -3.32307,-3.00032c-0.47377,-1.04039 -0.54032,-2.12694 -0.39071,-3.20863c-0.2472,-2.09024 0.11419,-3.08644 1.06671,-3.59284c0.2283,-0.58194 0.45632,-1.14282 0.64693,-1.67273c3.11913,-2.10409 7.81393,-4.79396 11.94348,-2.79221c3.82766,1.85541 3.66051,3.80525 3.54329,7.3097c-0.05,1.49472 0.37176,3.2269 -0.47189,4.46178c-0.76529,1.12016 -2.56791,0.93862 -3.71378,1.66485c-0.90465,0.57335 -1.57175,1.45538 -2.35762,2.18307z" fill="#636363" stroke-width="0.5"/><path d="M308.13289,193.06877l-6.91981,-4.0145l42.65404,-73.52301l6.91981,4.0145z" fill="#636363" stroke-width="0"/><path d="M319.5,162.30001v0v1z" fill="#636363" stroke-width="0"/><path d="M354.88088,256.46126l-6.65935,4.43317l-47.10241,-70.75566l6.65936,-4.43316z" fill="#636363" stroke-width="0"/><path d="M56,122.3c0,-1.38071 1.11929,-2.5 2.5,-2.5c1.38071,0 2.5,1.11929 2.5,2.5c0,1.38071 -1.11929,2.5 -2.5,2.5c-1.38071,0 -2.5,-1.11929 -2.5,-2.5z" fill="#636363" stroke-width="0.5"/><path d="M180.5,117.3v-10h23v10z" fill="url(#color-1)" stroke-width="0"/></g></g></svg>